# xmcd
#
# Track frame offsets: 
#        150
#        12943
#        23532
#        36156
#        49130
#        62228
#        75687
#        87850
#        101542
#        116280
#        126698
#        142709
#        154480
#        165305
#        174297
#        186111
#        199453
#        211268
#        221266
#        231398
#
# Disc length: 3223 seconds
#
# Revision: 1
# Processed by: cddbd v1.5.2PL0 Copyright (c) Steve Scherf et al.
# Submitted via: ExactAudioCopy v1.5
#
DISCID=0c0c9514
DTITLE=The Dreamers - They Sing Like Angels
DYEAR=2001
DGENRE=Blues
TTITLE0=Richard Berry and The Dreamers - Daddy Daddy
TTITLE1=Dreamers Featuring Richard Berry - Bye Bye (Baby)
TTITLE2=Richard Berry - Jelly Roll
TTITLE3=Richard Berry and The Dreamers - Baby Darling
TTITLE4=Dreamers Featuring Richard Berry - At Last
TTITLE5=Richard Berry and The Dreamers - Together
TTITLE6=Richard Berry and The Dreamers - Good Love
TTITLE7=Richard Berry and The Dreamers - Wait For Me
TTITLE8=Richard Berry and The Dreamers - Please Tell Me
TTITLE9=Rollettes - Sad Fool
TTITLE10=Rollettes - More Than You Realize
TTITLE11=Rollettes - Kiss Me Benny
TTITLE12=Dreamers - Do Not Forget
TTITLE13=Dreamers - Since You've Been Gone
TTITLE14=Richard Berry and The Pharaohs With Gloria Jones - You Are My S
TTITLE14=unshine
TTITLE15=Richard Berry and The Pharaohs With Gloria Jones - Have Love Wi
TTITLE15=ll Travel
TTITLE16=Jennell Hawkins With Richard Berry and The Lockettes - The Mess
TTITLE16=Around
TTITLE17=Richard Berry and The Pharaohs - Besame Mucho
TTITLE18=Richard Berry and The Pharaohs - Do I, Do I, Do I
TTITLE19=Googie Rene and His Wham Bams - Wham Bam
EXTD=
EXTT0=
EXTT1=
EXTT2=
EXTT3=
EXTT4=
EXTT5=
EXTT6=
EXTT7=
EXTT8=
EXTT9=
EXTT10=
EXTT11=
EXTT12=
EXTT13=
EXTT14=
EXTT15=
EXTT16=
EXTT17=
EXTT18=
EXTT19=
PLAYORDER=
